<svg width="154" height="145" viewBox="0 0 154 145" fill="none" xmlns="http://www.w3.org/2000/svg">
<path d="M0.5 22.4289C1.4057 20.5736 2.05206 18.5228 3.2929 16.9109C5.21602 14.3733 8.02887 13.2003 11.2447 13.1445C12.4895 13.1245 13.7344 13.1445 14.9792 13.1445C57.1441 13.1445 99.3036 13.1378 141.458 13.1245C144.626 13.1245 147.471 13.8028 149.837 15.9813C150.957 16.9777 151.855 18.1983 152.474 19.5639C153.092 20.9296 153.417 22.4099 153.427 23.9091C153.471 25.8522 153.451 27.7952 153.427 29.7343C153.427 31.4819 152.586 32.5272 151.221 32.5272C149.857 32.5272 148.967 31.4978 148.955 29.7822C148.935 27.8391 148.987 25.8961 148.935 23.957C148.847 20.43 146.182 17.657 142.683 17.6331C134.121 17.5772 125.558 17.6331 116.996 17.6331C116.814 17.6514 116.632 17.6807 116.453 17.7208V115.859C116.936 115.883 117.415 115.923 117.898 115.923C125.861 115.923 133.827 115.923 141.793 115.923C146.306 115.923 148.947 113.29 148.947 108.793C148.947 86.538 148.947 64.2812 148.947 42.0231C148.917 41.527 148.928 41.0293 148.979 40.5349C149.178 39.298 149.9 38.5399 151.193 38.5399C152.486 38.5399 153.188 39.302 153.396 40.5349C153.443 41.0295 153.452 41.527 153.423 42.0231C153.423 64.0312 153.288 86.0393 153.499 108.043C153.575 115.991 147.778 120.875 141.498 120.412C141.209 120.42 140.922 120.453 140.64 120.512C140.64 122.247 140.66 123.927 140.64 125.607C140.6 128.655 138.972 130.287 135.908 130.303C131.774 130.327 127.642 130.327 123.511 130.303C120.491 130.303 118.819 128.591 118.791 125.571C118.791 123.931 118.791 122.287 118.791 120.404H59.8333C59.3371 120.425 58.8401 120.415 58.345 120.376C58.0581 120.357 57.7778 120.281 57.5206 120.152C57.2634 120.024 57.0343 119.845 56.8468 119.627C56.6592 119.409 56.517 119.156 56.4283 118.883C56.3396 118.609 56.3062 118.321 56.3302 118.034C56.4259 116.745 57.184 116.067 58.4408 115.939C58.8837 115.895 59.3345 115.939 59.7814 115.939H111.785V112.269L110.365 112.42C106.124 112.891 102.696 109.962 102.609 105.701C102.545 102.37 102.609 99.0303 102.609 95.6947C102.609 73.2903 102.609 50.8859 102.609 28.4815C102.609 24.3241 105.002 21.4753 108.849 21.0763C109.766 20.9806 110.716 21.1641 111.765 21.2279V17.7089C111.291 17.6849 110.768 17.6331 110.245 17.6331C77.5895 17.6331 44.9338 17.6331 12.2781 17.6331C7.53014 17.6331 4.99658 20.1746 4.99658 24.9106V108.678C4.99658 113.298 7.59398 115.915 12.1783 115.919H47.4208C49.2721 115.919 50.3414 116.773 50.3095 118.186C50.2775 119.598 49.2122 120.392 47.341 120.396C44.0055 120.396 40.6699 120.396 37.3344 120.396H35.6387C35.6387 122.068 35.6387 123.636 35.6387 125.184C35.6108 128.715 34.0428 130.271 30.5157 130.279C26.5259 130.279 22.536 130.279 18.5701 130.279C15.438 130.279 13.7823 128.619 13.7304 125.491C13.7025 123.855 13.7304 122.219 13.7304 120.304C12.5753 120.366 11.4175 120.359 10.2632 120.284C5.47536 119.706 1.98024 116.518 0.78727 111.798C0.710686 111.567 0.618712 111.342 0.51197 111.124L0.5 22.4289ZM107.069 66.8041C107.069 79.3057 107.069 91.7993 107.069 104.285C107.048 104.833 107.063 105.382 107.113 105.929C107.146 106.458 107.373 106.956 107.751 107.328C108.129 107.7 108.63 107.919 109.16 107.944C110.401 108.075 111.314 107.545 111.678 106.324C111.822 105.746 111.882 105.151 111.857 104.556C111.857 79.3669 111.857 54.1789 111.857 28.9922C111.875 28.3485 111.797 27.7057 111.626 27.085C111.485 26.5785 111.164 26.1408 110.723 25.8549C110.282 25.5689 109.751 25.4544 109.232 25.533C108.7 25.5543 108.195 25.7686 107.81 26.1358C107.425 26.5031 107.187 26.998 107.141 27.5279C107.089 28.0729 107.073 28.6207 107.093 29.1678C107.077 41.7145 107.069 54.26 107.069 66.8041ZM18.2629 125.738H31.0304V120.504H18.2629V125.738ZM136.087 120.532H123.348V125.718H136.095L136.087 120.532Z" fill="#8E5426"/>
<path d="M16.5235 105.223C12.027 105.223 9.70885 102.924 9.70885 98.4398C9.70885 77.3334 9.70885 56.227 9.70885 35.1207C9.70885 30.5403 11.9911 28.2701 16.6113 28.2701C41.3963 28.2701 66.1827 28.2701 90.9704 28.2701C95.6944 28.2701 97.9327 30.5044 97.9327 35.2084C97.9327 56.2643 97.9327 77.3214 97.9327 98.3799C97.9327 102.944 95.6345 105.215 91.0302 105.215L16.5235 105.223ZM90.9624 100.742C93.1928 100.742 93.4441 100.495 93.4441 98.2483C93.4441 77.2855 93.4441 56.3228 93.4441 35.36C93.4441 33.03 93.1888 32.7626 90.8906 32.7626C66.1534 32.7626 41.4163 32.7626 16.6791 32.7626C14.4807 32.7626 14.1974 33.0579 14.1974 35.2802C14.1974 56.243 14.1974 77.2057 14.1974 98.1685C14.1974 100.511 14.4289 100.742 16.751 100.742H90.9624Z" fill="#8E5426"/>
<path d="M120.559 41.4326C120.559 37.1036 120.559 32.7746 120.559 28.4456C120.559 25.3534 122.362 23.4902 125.438 23.4662C130.263 23.429 135.089 23.429 139.914 23.4662C142.886 23.4942 144.737 25.3893 144.741 28.3658C144.763 37.0238 144.763 45.6818 144.741 54.3398C144.741 57.4 142.91 59.2872 139.834 59.3231C135.009 59.379 130.184 59.379 125.359 59.3231C122.346 59.2832 120.571 57.404 120.571 54.4156C120.547 50.0866 120.559 45.7576 120.559 41.4326ZM125.095 28.0346V54.7667H140.213V28.0346H125.095Z" fill="#8E5426"/>
<path d="M132.644 65.7347C134.509 65.7324 136.333 66.2838 137.884 67.3192C139.435 68.3545 140.644 69.8271 141.357 71.5503C142.07 73.2734 142.255 75.1695 141.889 76.9981C141.523 78.8267 140.623 80.5056 139.302 81.8217C137.98 83.1378 136.298 84.032 134.468 84.3909C132.638 84.7497 130.743 84.5571 129.022 83.8375C127.302 83.1178 125.834 81.9035 124.805 80.3484C123.775 78.7934 123.231 76.9678 123.24 75.1029C123.257 72.6173 124.254 70.2388 126.015 68.4845C127.776 66.7302 130.159 65.742 132.644 65.7347ZM127.721 75.095C127.711 75.743 127.83 76.3865 128.07 76.9886C128.31 77.5906 128.667 78.1393 129.119 78.6031C129.572 79.067 130.112 79.4367 130.708 79.6913C131.304 79.9458 131.944 80.08 132.592 80.0863C133.241 80.0926 133.884 79.9711 134.485 79.7289C135.086 79.4867 135.634 79.1284 136.096 78.6746C136.559 78.2207 136.928 77.6802 137.182 77.0838C137.436 76.4874 137.569 75.8468 137.576 75.1987C137.582 74.5505 137.461 73.9075 137.218 73.3063C136.976 72.7051 136.618 72.1575 136.164 71.6948C135.71 71.232 135.17 70.8632 134.573 70.6094C133.977 70.3555 133.336 70.2216 132.688 70.2153C132.04 70.2048 131.397 70.3231 130.795 70.5635C130.193 70.8039 129.646 71.1615 129.183 71.6156C128.721 72.0696 128.354 72.6111 128.103 73.2084C127.852 73.8057 127.722 74.447 127.721 75.095Z" fill="#8E5426"/>
<path d="M132.7 110.018C131.464 110.021 130.239 109.781 129.095 109.31C127.952 108.839 126.912 108.148 126.036 107.276C125.159 106.404 124.463 105.367 123.987 104.226C123.511 103.085 123.265 101.861 123.262 100.624C123.259 99.3877 123.5 98.1627 123.971 97.0192C124.441 95.8757 125.132 94.836 126.005 93.9596C126.877 93.0832 127.913 92.3872 129.055 91.9114C130.196 91.4355 131.42 91.1891 132.656 91.1862C135.154 91.1804 137.551 92.1669 139.321 93.9286C141.091 95.6903 142.089 98.083 142.094 100.58C142.1 103.078 141.114 105.475 139.352 107.245C137.59 109.015 135.198 110.013 132.7 110.018ZM132.62 105.538C133.268 105.545 133.911 105.423 134.512 105.181C135.113 104.938 135.66 104.58 136.121 104.125C136.583 103.67 136.95 103.129 137.202 102.532C137.453 101.935 137.585 101.294 137.588 100.646C137.579 99.3373 137.058 98.0839 136.137 97.1536C135.217 96.2233 133.969 95.6897 132.66 95.6668C131.351 95.6668 130.096 96.1868 129.17 97.1124C128.245 98.038 127.725 99.2933 127.725 100.602C127.714 101.25 127.833 101.893 128.075 102.494C128.317 103.095 128.676 103.642 129.132 104.102C129.589 104.562 130.132 104.926 130.731 105.172C131.33 105.419 131.973 105.543 132.62 105.538Z" fill="#8E5426"/>
</svg>
