<svg width="154" height="145" viewBox="0 0 154 145" fill="none" xmlns="http://www.w3.org/2000/svg">
<path d="M0.5 49.5084C1.18262 47.4405 2.03689 45.3767 4.09272 44.4187C5.61763 43.7121 7.37806 43.4886 9.05067 43.1213C9.63985 43.0592 10.2339 43.0592 10.8231 43.1213C11.2223 40.9138 11.5017 38.7901 12.0207 36.7342C13.9067 29.3876 18.1818 22.8765 24.1733 18.2255C30.1649 13.5745 37.5327 11.0476 45.1176 11.0423C49.9079 11.0064 54.6702 11.0423 59.6601 11.0423C59.6601 9.92457 59.6601 8.89865 59.6601 7.87273C59.6542 6.8986 59.8425 5.93306 60.2139 5.0325C60.5853 4.13193 61.1324 3.31439 61.8232 2.62761C62.5141 1.94083 63.3349 1.39859 64.2376 1.03254C65.1404 0.666499 66.107 0.48399 67.0811 0.495674C73.7023 0.461077 80.3236 0.461077 86.9448 0.495674C91.1204 0.519625 94.254 3.6892 94.3339 7.90865C94.3339 8.89066 94.3339 9.87667 94.3339 11.0383C95.0564 11.0383 95.6352 11.0383 96.2141 11.0383C101.439 11.0942 106.681 10.9305 111.89 11.2619C126.752 12.2079 139.834 24.1038 142.432 38.806C142.672 40.1713 142.832 41.5525 143.083 43.1253C143.929 43.1253 144.756 43.1253 145.582 43.1253C150.296 43.269 153.47 46.5144 153.486 51.2488C153.505 56.9253 153.505 62.6005 153.486 68.2743C153.486 73.1684 150.229 76.4338 145.37 76.4697H143.051V78.2741C143.051 90.8206 142.824 103.371 143.119 115.914C143.367 126.365 136.261 134.812 125.978 135.953C125.978 136.752 125.978 137.586 125.978 138.416C125.906 141.718 123.698 143.937 120.421 143.965C117.683 143.989 114.944 143.965 112.206 143.965C108.613 143.965 106.453 141.805 106.377 138.225C106.377 137.534 106.377 136.843 106.377 136.053H47.6165C47.6165 136.923 47.6485 137.714 47.6165 138.496C47.4688 141.821 45.2853 143.941 41.968 143.961C39.2774 143.981 36.5909 143.961 33.9003 143.961C30.2278 143.961 28.0482 141.785 28.0202 138.133C28.0202 137.442 28.0202 136.748 28.0202 136.269C25.5932 135.438 23.1621 134.943 21.0583 133.83C14.4717 130.333 11.0187 124.744 10.9668 117.267C10.883 104.321 10.9468 91.3795 10.9468 78.4377V76.4418C5.79727 76.9887 2.07281 75.2442 0.5 70.1266V49.5084ZM138.484 47.5843H37.1138C36.4184 47.614 35.7218 47.5752 35.034 47.4685C33.8365 47.229 33.2616 46.4027 33.3255 45.2011C33.3177 44.6948 33.5027 44.2045 33.8429 43.8294C34.1831 43.4544 34.6531 43.2226 35.1578 43.1812C35.8006 43.1111 36.4476 43.0871 37.0938 43.1093H138.425C138.425 42.7101 138.445 42.4586 138.425 42.2191C137.689 34.9326 134.282 28.1764 128.861 23.2526C123.44 18.3288 116.387 15.5861 109.064 15.5532C87.7033 15.4494 66.3506 15.3416 44.9779 15.5971C32.4353 15.7488 23.3976 21.9841 17.9566 33.2812C16.5074 36.3647 15.6851 39.7054 15.5375 43.1093H17.2141C19.8049 43.1093 22.4036 43.0814 24.9824 43.1413C25.2699 43.1279 25.5572 43.1718 25.8276 43.2705C26.098 43.3691 26.3461 43.5205 26.5574 43.7159C26.7688 43.9113 26.9392 44.1467 27.0587 44.4085C27.1783 44.6704 27.2446 44.9533 27.2538 45.241C27.3137 46.4825 26.4275 47.4445 25.0343 47.5563C24.1441 47.6282 23.2419 47.5922 22.3477 47.5922H15.4976V115.056H55.5525V113.223C55.5525 102.417 55.5285 91.615 55.5525 80.8089C55.5724 74.4219 59.8956 70.1146 66.2508 70.0907C73.4681 70.0667 80.6882 70.0667 87.9109 70.0907C93.9387 70.1226 98.2898 74.366 98.4136 80.3938C98.4934 83.7749 98.4455 87.18 98.4136 90.5492C98.4136 92.2777 97.5154 93.3435 96.1622 93.3435C94.8089 93.3435 93.9507 92.3176 93.9427 90.5492C93.9427 87.3557 93.9427 84.1621 93.9427 80.9886C93.9227 76.817 91.6473 74.5576 87.4478 74.5536C80.478 74.5536 73.5067 74.5536 66.5342 74.5536C62.2708 74.5536 60.0274 76.821 60.0234 81.1203C60.0234 91.9251 60.0234 102.731 60.0234 113.539C60.0234 114.018 60.0753 114.497 60.1072 115.028H93.9786V113.335C93.9786 109.551 93.9786 105.75 93.9786 101.982C93.9786 100.317 94.8209 99.3753 96.1861 99.3793C97.5514 99.3833 98.4096 100.321 98.4415 101.978C98.4775 104.07 98.4415 106.162 98.4415 108.253V115.04H138.484V47.5843ZM138.289 119.726H15.5655C15.8928 120.808 16.1084 121.774 16.4676 122.68C18.1802 127.003 22.8547 131.522 30.4393 131.498C60.9016 131.398 91.3639 131.458 121.826 131.454C122.872 131.454 123.918 131.454 124.96 131.426C126.908 131.391 128.826 130.938 130.583 130.097C132.341 129.256 133.898 128.047 135.147 126.552C136.87 124.653 137.967 122.27 138.289 119.726ZM89.839 10.9744C89.839 9.77687 89.8989 8.73897 89.839 7.70906C89.8201 6.97422 89.5125 6.2764 88.9827 5.7668C88.453 5.2572 87.7437 4.97688 87.0087 4.98657C80.3555 4.95198 73.6877 4.95198 67.0052 4.98657C66.2964 4.96726 65.6074 5.22206 65.0817 5.69795C64.556 6.17384 64.2341 6.83414 64.183 7.5414C64.0872 8.65913 64.163 9.79283 64.163 10.9784L89.839 10.9744ZM10.875 47.6282C9.82511 47.6282 8.92692 47.5643 8.04471 47.6282C6.29626 47.7799 5.02683 48.9974 5.01485 50.7379C4.96163 56.7603 4.96163 62.7841 5.01485 68.8092C5.00882 69.5724 5.28511 70.3109 5.79061 70.8827C6.29611 71.4546 6.99513 71.8194 7.7533 71.907C8.79947 71.9678 9.84808 71.9744 10.8949 71.9269L10.875 47.6282ZM143.147 71.9788C144.029 71.9788 144.82 72.0028 145.61 71.9788C147.662 71.907 148.979 70.6495 148.995 68.5937C149.032 62.7176 149.032 56.8428 148.995 50.9694C148.995 49.0573 147.742 47.7759 145.861 47.6441C144.979 47.5603 144.093 47.6162 143.147 47.6162V71.9788ZM42.95 136.081H32.5032V137.39C32.5032 139.438 32.5391 139.482 34.571 139.486H40.3672C43.2334 139.486 43.3612 139.346 43.1057 136.448C43.0715 136.316 43.0206 136.188 42.954 136.069L42.95 136.081ZM121.399 136.081H110.924C110.896 136.628 110.856 137.067 110.856 137.506C110.856 139.386 110.96 139.502 112.884 139.502H118.541C121.702 139.474 121.702 139.474 121.403 136.053L121.399 136.081Z" fill="#8E5426"/>
<path d="M76.913 109.878C74.1186 109.878 71.3243 109.878 68.5539 109.878C66.9571 109.878 65.9432 108.976 65.9472 107.643C65.9512 106.309 66.9611 105.415 68.5699 105.407C74.1958 105.391 79.8178 105.391 85.4357 105.407C87.0325 105.407 88.0464 106.329 88.0424 107.659C88.0384 108.988 87.0325 109.866 85.4197 109.878C82.5815 109.89 79.7472 109.878 76.913 109.878Z" fill="#8E5426"/>
<path d="M77.0851 82.8768C79.8195 82.8768 82.554 82.8768 85.2885 82.8768C87.0529 82.8768 88.0549 83.7191 88.0389 85.1043C88.0229 86.4895 87.013 87.3358 85.2445 87.3437C79.7277 87.3677 74.2096 87.3677 68.6901 87.3437C66.9416 87.3437 65.9357 86.4496 65.9397 85.0723C65.9437 83.6951 66.9496 82.8848 68.734 82.8768C71.5164 82.8648 74.3027 82.8768 77.0851 82.8768Z" fill="#8E5426"/>
<path d="M76.9808 98.5849C74.1865 98.5849 71.4121 98.5849 68.6257 98.5849C66.9611 98.5849 65.9911 97.7626 65.9552 96.4293C65.9192 95.096 66.9332 94.1259 68.6537 94.118C74.2264 94.0967 79.7964 94.0967 85.3638 94.118C87.0684 94.118 88.0943 95.072 88.0384 96.4572C87.9865 97.7746 87.0045 98.5729 85.3359 98.5849C82.5495 98.6009 79.7672 98.5849 76.9808 98.5849Z" fill="#8E5426"/>
</svg>
