<svg width="154" height="145" viewBox="0 0 154 145" fill="none" xmlns="http://www.w3.org/2000/svg">
<path d="M4.4736 42.8594C4.4736 47.1702 4.4736 51.3726 4.4736 55.5751C4.4736 56.0206 4.6074 56.6147 4.37629 56.8916C3.91 57.4535 3.23288 58.2162 2.64495 58.2121C2.05703 58.2081 1.38801 57.4455 0.92578 56.8756C0.694665 56.5946 0.836577 56.0086 0.836577 55.559C0.836577 44.9439 0.836577 34.3274 0.836577 23.7096C0.836577 14.7227 7.09696 8.56155 16.2118 8.54148C18.2391 8.54148 20.2421 8.54148 22.2938 8.54148C22.456 7.60627 22.5371 6.76337 22.756 5.9566C23.1517 4.5511 23.9611 3.29402 25.0811 2.34547C26.201 1.39693 27.5808 0.79985 29.0448 0.630298C29.6478 0.561533 30.2543 0.526691 30.8613 0.52594C42.0926 0.52594 53.3227 0.52594 64.5514 0.52594C68.752 0.52594 71.6308 2.53284 72.5917 6.03687C72.77 6.83192 72.9054 7.63582 72.9972 8.44515H81.0741C81.139 7.68976 81.2432 6.93819 81.3863 6.19341C81.7441 4.72305 82.5519 3.39796 83.6993 2.39933C84.8467 1.4007 86.2777 0.777256 87.7967 0.614243C88.3997 0.546699 89.0062 0.513196 89.6131 0.513898C100.792 0.513898 111.966 0.533967 123.145 0.513898C126.644 0.513898 129.389 1.71803 130.894 4.95315C131.388 6.01681 131.514 7.24101 131.846 8.56556C133.821 8.56556 135.901 8.56556 137.949 8.56556C146.95 8.59366 153.202 14.7789 153.206 23.7016C153.206 54.4954 153.206 85.2905 153.206 116.087C153.206 125.054 147.055 131.167 137.989 131.235C135.118 131.259 132.248 131.235 129.243 131.235C129.243 133.166 129.243 134.908 129.243 136.65C129.203 140.704 126.531 143.698 122.431 143.81C116.623 143.973 110.811 143.973 104.996 143.81C100.942 143.698 98.3104 140.748 98.2496 136.758C98.2212 135.008 98.2496 133.258 98.2496 131.376H55.8136C55.8136 133.005 55.8136 134.635 55.8136 136.26C55.7893 141.005 53.0037 143.838 48.1989 143.887C42.936 143.937 37.6744 143.937 32.4142 143.887C27.6216 143.838 24.8117 140.977 24.7996 136.26C24.7996 134.655 24.7996 133.049 24.7996 131.251C21.9613 131.251 19.1677 131.372 16.4105 131.215C14.3832 131.099 12.2464 130.906 10.3285 130.256C7.57332 129.316 5.18195 127.55 3.48617 125.204C1.7904 122.858 0.874293 120.048 0.86496 117.163C0.796031 101.79 0.832523 86.4171 0.836577 71.0442C0.836577 69.5712 1.52181 68.7564 2.69361 68.8286C4.13301 68.9169 4.48171 69.8722 4.48171 71.1205C4.48171 86.2445 4.48171 101.363 4.48171 116.476C4.48171 121.859 7.84301 126.146 12.9681 127.314C14.0584 127.528 15.1694 127.622 16.2807 127.595C20.3759 127.595 24.4711 127.518 28.5704 127.522C42.1737 127.522 55.7811 127.603 69.3886 127.603C88.0399 127.603 106.704 127.576 125.379 127.522C129.527 127.522 133.675 127.607 137.819 127.599C145.04 127.599 149.549 123.103 149.549 115.959C149.549 92.1247 149.549 68.2894 149.549 44.4529V42.8474L4.4736 42.8594ZM4.53036 38.9419H149.549C149.549 35.1168 149.549 31.4161 149.549 27.7033C149.549 25.6964 149.683 23.6895 149.452 21.6826C148.783 16.0071 144.132 12.1218 138.123 12.1178C100.55 12.1178 62.9768 12.1178 25.4037 12.1178C22.0667 12.1178 18.7297 12.0736 15.3928 12.1178C9.71626 12.2181 4.93988 16.2158 4.60335 21.7228C4.26276 27.4424 4.53036 33.1581 4.53036 38.9419ZM28.6312 131.428C28.5501 131.596 28.4731 131.681 28.4731 131.769C28.4731 133.266 28.4366 134.763 28.4406 136.264C28.4406 139.026 29.6976 140.258 32.5318 140.278C35.5079 140.302 38.4881 140.278 41.452 140.278C43.824 140.278 46.1959 140.314 48.5679 140.254C50.4736 140.206 51.9252 139.166 52.0549 137.557C52.2171 135.55 52.0955 133.499 52.0955 131.416L28.6312 131.428ZM101.862 131.4C101.862 133.346 101.818 135.14 101.862 136.927C101.919 138.833 103.131 140.198 105.078 140.226C110.831 140.306 116.585 140.29 122.334 140.226C123.956 140.206 125.31 139.118 125.44 137.649C125.623 135.586 125.485 133.503 125.485 131.4H101.862ZM26.1214 8.4612H69.1007C69.3075 5.69169 67.7788 4.15842 64.7419 4.13835C59.3817 4.10624 54.0174 4.13835 48.6571 4.13835C42.6887 4.13835 36.7202 4.13835 30.7518 4.13835C27.6581 4.14638 26.2592 5.44283 26.1214 8.4612ZM104.477 4.12631H97.244C94.4057 4.12631 91.5675 4.06209 88.7292 4.17046C86.0572 4.27081 84.5732 6.073 85.0314 8.45318H104.469L104.477 4.12631ZM127.824 8.4612C127.958 5.74788 126.437 4.19053 123.599 4.14638C118.794 4.0942 113.99 4.12631 109.189 4.14638C108.907 4.16902 108.627 4.21739 108.354 4.29088V8.4612H127.824Z" fill="#E6811B"/>
<path d="M33.7603 117.588C27.6297 117.588 24.1792 114.176 24.1792 108.116C24.1792 92.4404 24.1792 76.7692 24.1792 61.1021C24.1792 55.0493 27.6337 51.6375 33.7765 51.6375C62.6051 51.6375 91.4337 51.6375 120.262 51.6375C126.401 51.6375 129.843 55.0533 129.847 61.1181C129.847 76.7879 129.847 92.4578 129.847 108.128C129.847 114.176 126.381 117.588 120.246 117.588H33.7603ZM120.514 113.996C124.298 113.996 126.19 112.123 126.19 108.376C126.19 92.5541 126.19 76.7304 126.19 60.9054C126.19 57.1525 124.297 55.262 120.514 55.258C91.5904 55.2392 62.6578 55.2259 33.7157 55.2178C29.6611 55.2178 27.8081 57.0642 27.8081 61.1101V107.967C27.8081 112.246 29.5597 113.988 33.8536 113.988L120.514 113.996Z" fill="#E6811B"/>
<path d="M0.848673 63.5545C0.814162 63.0574 0.814162 62.5585 0.848673 62.0614C0.990585 61.0379 1.58662 60.4278 2.66516 60.4559C3.74369 60.484 4.34378 61.1021 4.43298 62.1256C4.51002 62.9685 4.46137 63.8194 4.46137 64.6704C4.46137 65.8464 3.8775 66.6492 2.68948 66.6773C1.41632 66.6773 0.82029 65.8745 0.82029 64.6262V63.5545H0.848673Z" fill="#E6811B"/>
<path d="M119.236 17.135C120.85 17.1554 122.421 17.6505 123.75 18.5572C125.079 19.4639 126.106 20.7413 126.699 22.2271C127.293 23.7128 127.427 25.3398 127.084 26.901C126.741 28.4623 125.937 29.8874 124.774 30.9952C123.611 32.1029 122.142 32.8433 120.552 33.1221C118.963 33.4009 117.326 33.2056 115.849 32.561C114.372 31.9164 113.123 30.8517 112.259 29.5021C111.395 28.1526 110.956 26.5792 110.997 24.982C111.057 22.8657 111.954 20.8573 113.495 19.3895C115.036 17.9217 117.098 17.1121 119.236 17.135ZM119.18 29.6299C119.781 29.6449 120.38 29.5402 120.939 29.3221C121.499 29.1039 122.009 28.7768 122.439 28.3599C122.869 27.9431 123.21 27.4451 123.442 26.8954C123.674 26.3458 123.792 25.7556 123.789 25.16C123.787 24.5643 123.663 23.9752 123.426 23.4277C123.189 22.8801 122.844 22.3851 122.41 21.9722C121.977 21.5592 121.464 21.2366 120.902 21.0234C120.34 20.8103 119.74 20.711 119.139 20.7313C118.538 20.718 117.94 20.8242 117.38 21.0437C116.821 21.2632 116.312 21.5916 115.883 22.0093C115.455 22.4271 115.115 22.9258 114.884 23.4758C114.654 24.0259 114.537 24.6161 114.541 25.2116C114.545 25.8071 114.67 26.3958 114.908 26.9427C115.146 27.4896 115.493 27.9837 115.927 28.3957C116.361 28.8077 116.875 29.1292 117.437 29.3412C117.999 29.5532 118.599 29.6514 119.2 29.6299H119.18Z" fill="#E6811B"/>
<path d="M34.9808 17.135C36.5871 17.1644 38.1488 17.6639 39.4689 18.5704C40.7889 19.477 41.8084 20.7501 42.3987 22.2293C42.9891 23.7085 43.1239 25.3276 42.7862 26.8825C42.4485 28.4374 41.6534 29.8586 40.5011 30.9669C39.3488 32.0752 37.8909 32.8211 36.3111 33.1105C34.7313 33.3999 33.1003 33.2199 31.6236 32.5932C30.147 31.9664 28.8908 30.921 28.0134 29.5887C27.1359 28.2564 26.6765 26.6968 26.6931 25.1064C26.7003 24.0419 26.9214 22.9895 27.3434 22.0104C27.7654 21.0312 28.3799 20.145 29.1512 19.4032C29.9224 18.6614 30.835 18.0788 31.8358 17.6894C32.8366 17.3 33.9057 17.1116 34.9808 17.135ZM34.8713 29.6299C35.4729 29.6478 36.072 29.546 36.6331 29.3304C37.1942 29.1149 37.7059 28.79 38.1378 28.3751C38.5697 27.9602 38.9131 27.4636 39.1476 26.9149C39.3821 26.3662 39.5029 25.7764 39.5029 25.1806C39.5029 24.5848 39.3821 23.9951 39.1476 23.4464C38.9131 22.8977 38.5697 22.4011 38.1378 21.9862C37.7059 21.5713 37.1942 21.2464 36.6331 21.0309C36.072 20.8153 35.4729 20.7135 34.8713 20.7314C34.2697 20.7135 33.6706 20.8153 33.1095 21.0309C32.5484 21.2464 32.0367 21.5713 31.6048 21.9862C31.1729 22.4011 30.8295 22.8977 30.595 23.4464C30.3605 23.9951 30.2397 24.5848 30.2397 25.1806C30.2397 25.7764 30.3605 26.3662 30.595 26.9149C30.8295 27.4636 31.1729 27.9602 31.6048 28.3751C32.0367 28.79 32.5484 29.1149 33.1095 29.3304C33.6706 29.546 34.2697 29.6478 34.8713 29.6299Z" fill="#E6811B"/>
<path d="M89.8483 17.135C91.4622 17.1678 93.0297 17.675 94.3516 18.592C95.6736 19.5091 96.6901 20.7947 97.2719 22.2852C97.8538 23.7757 97.9748 25.4039 97.6194 26.9626C97.264 28.5213 96.4483 29.9402 95.2761 31.0388C94.1039 32.1374 92.6281 32.8661 91.0364 33.1322C89.4447 33.3983 87.8091 33.1898 86.3374 32.5331C84.8658 31.8765 83.6247 30.8015 82.7719 29.4447C81.9192 28.0879 81.4933 26.5107 81.5484 24.9137C81.6267 22.7993 82.5401 20.7997 84.0922 19.345C85.6444 17.8903 87.7112 17.0968 89.8483 17.135ZM89.6739 29.6299C90.2753 29.6503 90.8747 29.551 91.4366 29.3378C91.9985 29.1247 92.5115 28.8021 92.9451 28.3891C93.3788 27.9761 93.7243 27.4812 93.9612 26.9336C94.1981 26.3861 94.3215 25.797 94.3242 25.2013C94.327 24.6057 94.2089 24.0155 93.977 23.4658C93.7451 22.9162 93.4041 22.4182 92.9742 22.0013C92.5444 21.5845 92.0344 21.2573 91.4744 21.0392C90.9145 20.821 90.316 20.7164 89.7145 20.7314C89.1131 20.711 88.5137 20.8103 87.9518 21.0235C87.3899 21.2366 86.8769 21.5592 86.4433 21.9722C86.0096 22.3852 85.6641 22.8801 85.4272 23.4277C85.1904 23.9752 85.0669 24.5643 85.0642 25.16C85.0615 25.7556 85.1795 26.3458 85.4114 26.8955C85.6433 27.4451 85.9843 27.9431 86.4142 28.36C86.844 28.7768 87.3541 29.104 87.914 29.3221C88.4739 29.5403 89.0724 29.6449 89.6739 29.6299Z" fill="#E6811B"/>
<path d="M62.374 17.131C63.9823 17.1509 65.5485 17.6422 66.8749 18.5427C68.2014 19.4432 69.2285 20.7127 69.8265 22.1907C70.4245 23.6688 70.5667 25.2891 70.2351 26.8471C69.9034 28.4051 69.1129 29.8308 67.9632 30.9443C66.8135 32.0577 65.3562 32.809 63.7755 33.1031C62.1948 33.3972 60.5615 33.221 59.0818 32.5968C57.6022 31.9726 56.3426 30.9283 55.4622 29.5958C54.5817 28.2634 54.1198 26.7025 54.1349 25.1104C54.1374 24.0483 54.3536 22.9973 54.7707 22.0187C55.1879 21.0402 55.7977 20.1537 56.5647 19.4109C57.3316 18.6681 58.2403 18.084 59.2377 17.6925C60.2351 17.3011 61.3013 17.1102 62.374 17.131ZM62.3213 29.63C63.2099 29.6196 64.0754 29.3489 64.8087 28.8519C65.5419 28.355 66.11 27.6541 66.4411 26.8378C66.7723 26.0215 66.8517 25.1263 66.6693 24.2654C66.4869 23.4044 66.0509 22.6163 65.4164 22.0004C64.7818 21.3846 63.9772 20.9687 63.104 20.8052C62.2309 20.6417 61.3284 20.738 60.5104 21.082C59.6925 21.4259 58.9959 22.002 58.5085 22.7375C58.0211 23.4731 57.7648 24.3351 57.772 25.2148C57.7685 25.8041 57.8848 26.388 58.1141 26.9319C58.3434 27.4757 58.6809 27.9683 59.1065 28.3803C59.5322 28.7923 60.0372 29.1152 60.5916 29.3299C61.146 29.5446 61.7384 29.6467 62.3334 29.63H62.3213Z" fill="#E6811B"/>
<path d="M111.902 85.8712C111.902 81.0279 111.902 76.1819 111.902 71.3332C111.902 69.7277 112.534 68.9008 113.714 68.9249C114.894 68.949 115.534 69.7598 115.539 71.3573C115.539 81.1028 115.539 90.8469 115.539 100.59C115.539 102.159 114.849 102.998 113.633 102.906C112.189 102.797 111.889 101.818 111.897 100.582C111.914 95.6688 111.902 90.772 111.902 85.8712Z" fill="#E6811B"/>
<path d="M152.914 116.087V23.7015C152.912 19.3093 151.372 15.6093 148.743 13.004C146.279 10.5614 142.841 9.0647 138.77 8.87595L137.949 8.85515H131.616L131.563 8.63579C131.396 7.97122 131.275 7.31062 131.144 6.72397C131.044 6.27517 130.934 5.85516 130.787 5.46078L130.626 5.07501C129.899 3.50968 128.879 2.44832 127.627 1.77519C126.529 1.18426 125.236 0.884246 123.78 0.818336L123.146 0.805099C117.557 0.815133 111.968 0.815171 106.38 0.812663L89.6131 0.805099C89.315 0.804754 89.0166 0.811343 88.7191 0.827791L87.8289 0.903432C86.3705 1.05996 84.9957 1.65797 83.8938 2.61669C82.792 3.57562 82.0159 4.84883 81.6721 6.26068C81.5323 6.99127 81.4302 7.72846 81.3665 8.46938L81.3436 8.73601H72.734L72.7054 8.47695C72.6152 7.68261 72.4826 6.8936 72.308 6.11318L72.1132 5.49671C71.6081 4.0986 70.7591 2.99175 69.6184 2.20634C68.3125 1.30726 66.604 0.816445 64.5504 0.816445H30.861C30.5634 0.816825 30.2659 0.825863 29.9689 0.842919L29.0787 0.91856C27.6728 1.08142 26.3472 1.65466 25.2716 2.56563C24.1961 3.47653 23.4186 4.6841 23.0385 6.03375C22.8244 6.82336 22.751 7.62664 22.5838 8.59041L22.5418 8.83246H16.2131L15.3802 8.85137C11.2575 9.03596 7.79152 10.525 5.31313 12.9681C2.66997 15.5738 1.12978 19.2845 1.12965 23.7091V55.5594C1.12963 55.6846 1.12016 55.8161 1.11055 55.9376C1.10061 56.0633 1.09067 56.1796 1.08763 56.2894C1.08277 56.4669 1.09842 56.5764 1.12392 56.6411L1.15258 56.6921L1.15449 56.694L1.52508 57.1309C1.65616 57.2761 1.79447 57.4168 1.93388 57.5393C2.22426 57.7944 2.46731 57.9198 2.6464 57.9213C2.82437 57.9225 3.06883 57.7992 3.36275 57.545C3.644 57.3017 3.91734 56.9874 4.14978 56.7073L4.17844 56.6562C4.2042 56.5919 4.22194 56.4818 4.21855 56.3026C4.21645 56.1926 4.20665 56.076 4.19754 55.9509C4.18871 55.8296 4.18035 55.698 4.18035 55.5746V42.5682L149.842 42.5568V115.958C149.842 119.592 148.695 122.581 146.6 124.663C144.636 126.614 141.865 127.742 138.501 127.876L137.819 127.889C135.745 127.893 133.67 127.875 131.597 127.855C129.523 127.835 127.451 127.813 125.379 127.813C106.704 127.867 88.0403 127.893 69.3891 127.893C65.9871 127.893 62.5845 127.889 59.1826 127.881L38.7733 127.825L28.5706 127.813C26.5229 127.811 24.4753 127.829 22.4272 127.847C20.381 127.866 18.3332 127.883 16.2857 127.883L16.2876 127.885L16.2819 127.883L16.28 127.885C15.1497 127.913 14.0192 127.816 12.9103 127.598H12.9026C7.63829 126.398 4.18809 121.988 4.18799 116.477V71.1206C4.18799 70.5131 4.10165 70.0323 3.88235 69.6985C3.70217 69.4247 3.40919 69.2169 2.90429 69.1426L2.67506 69.118C2.16843 69.0868 1.80082 69.2453 1.55182 69.5416C1.29346 69.8496 1.12965 70.3471 1.12965 71.0449L1.11628 94.104C1.11578 97.9466 1.11772 101.789 1.12392 105.632L1.15831 117.161L1.16977 117.691C1.28195 120.329 2.16918 122.882 3.7257 125.035C5.38601 127.332 7.72763 129.06 10.425 129.98C12.3015 130.617 14.4014 130.81 16.4271 130.926L17.4586 130.971C19.8676 131.053 22.301 130.96 24.7997 130.96H25.092V136.26L25.1016 136.686C25.1866 138.786 25.8639 140.453 27.0233 141.62C28.26 142.864 30.0803 143.572 32.4179 143.596L36.3607 143.624C40.305 143.643 44.2508 143.634 48.1967 143.596L48.6303 143.584C50.7655 143.483 52.4334 142.793 53.5893 141.631C54.823 140.39 55.5087 138.575 55.5206 136.258V131.085H98.5436V131.376C98.5436 132.32 98.5357 133.228 98.5321 134.118L98.5436 136.754L98.5551 137.113C98.655 138.893 99.2942 140.423 100.341 141.54C101.456 142.729 103.051 143.466 105.004 143.52L107.184 143.573C112.266 143.68 117.346 143.663 122.424 143.52L122.789 143.501C124.599 143.37 126.086 142.644 127.144 141.512C128.274 140.302 128.93 138.61 128.949 136.646V130.945H129.243C132.251 130.945 135.118 130.969 137.987 130.945L138.816 130.92C142.914 130.716 146.342 129.228 148.789 126.794C151.399 124.197 152.914 120.503 152.914 116.087ZM52.3897 131.124V131.416C52.3897 133.218 52.4815 135.037 52.3954 136.818L52.3477 137.58C52.2107 139.276 50.7702 140.353 48.9455 140.523L48.5749 140.544C46.1981 140.604 43.8173 140.568 41.4515 140.568C38.4911 140.568 35.506 140.592 32.5287 140.568C31.0766 140.558 29.9626 140.237 29.2163 139.505C28.5624 138.864 28.2336 137.949 28.1618 136.78L28.1465 136.264C28.1445 135.512 28.1532 134.761 28.1618 134.012C28.1704 133.263 28.179 132.516 28.179 131.769C28.179 131.644 28.2352 131.543 28.265 131.489C28.3033 131.42 28.3301 131.377 28.3662 131.302L28.4464 131.138L52.3897 131.124ZM125.778 131.109V131.4C125.778 133.218 125.885 135.067 125.788 136.894L125.732 137.675C125.596 139.218 124.263 140.346 122.661 140.498L122.338 140.517C118.024 140.565 113.707 140.585 109.39 140.559L105.073 140.517C104.028 140.502 103.16 140.124 102.548 139.479C101.937 138.836 101.6 137.947 101.569 136.935C101.525 135.145 101.569 133.337 101.569 131.4V131.109H125.778ZM102.154 131.69C102.15 133.533 102.114 135.225 102.156 136.918L102.179 137.246C102.26 137.995 102.541 138.624 102.975 139.082C103.47 139.602 104.181 139.922 105.082 139.935L109.394 139.978C113.707 140.004 118.019 139.983 122.33 139.935L122.609 139.921C123.978 139.791 125.041 138.835 125.148 137.624L125.201 136.856C125.291 135.157 125.205 133.45 125.196 131.69H102.154ZM23.8866 108.116V61.102C23.8866 58.0218 24.7659 55.572 26.4674 53.8934C28.1687 52.2154 30.6514 51.3463 33.7761 51.3462H120.261C123.384 51.3462 125.864 52.2164 127.562 53.8972C129.261 55.5782 130.139 58.0317 130.141 61.1171V108.128C130.141 111.206 129.258 113.655 127.555 115.333C125.852 117.01 123.367 117.878 120.246 117.878H33.7608C30.6417 117.878 28.1624 117.01 26.4636 115.331C24.7649 113.651 23.8868 111.2 23.8866 108.116ZM125.897 60.9053C125.897 59.0742 125.435 57.7499 124.563 56.8812C123.8 56.1215 122.685 55.6725 121.182 55.5708L120.514 55.5481L33.7149 55.5084C31.7271 55.5085 30.3417 55.9612 29.4493 56.851C28.5565 57.7413 28.1008 59.1245 28.1007 61.1096V107.967C28.1007 110.076 28.5348 111.487 29.4283 112.377C30.3216 113.266 31.7381 113.697 33.8544 113.697L120.514 113.706L121.182 113.684C122.686 113.584 123.801 113.141 124.563 112.386C125.435 111.524 125.897 110.205 125.897 108.377V60.9053ZM111.608 71.3324C111.608 70.5 111.77 69.8186 112.129 69.343C112.501 68.8519 113.052 68.6203 113.721 68.6339C114.384 68.6476 114.931 68.8884 115.302 69.3771C115.664 69.8528 115.829 70.5272 115.831 71.357V100.59C115.831 101.41 115.653 102.089 115.27 102.555C114.924 102.975 114.439 103.189 113.862 103.202L113.61 103.196C112.815 103.136 112.284 102.827 111.971 102.319C111.672 101.834 111.6 101.211 111.604 100.581L111.608 71.3324ZM0.526011 64.6268V63.2634H0.545114C0.528331 62.8562 0.52835 62.4486 0.556576 62.0418V62.021C0.633755 61.4655 0.840821 60.9875 1.20607 60.6519C1.57534 60.3128 2.07446 60.1503 2.67315 60.1659C3.26814 60.1815 3.76469 60.3609 4.12495 60.7087C4.48342 61.055 4.67554 61.5379 4.72477 62.0986L4.76298 62.7472C4.78237 63.3971 4.75534 64.0487 4.75534 64.6703C4.75534 65.3019 4.59825 65.8699 4.24721 66.289C3.8899 66.7152 3.36032 66.9522 2.69607 66.9679H2.69034C1.98817 66.9679 1.43096 66.743 1.05515 66.308C0.686054 65.8807 0.526112 65.2917 0.526011 64.6268ZM149.255 27.7029C149.255 25.9246 149.358 24.1938 149.231 22.4591L149.16 21.7159C148.53 16.3709 144.273 12.6504 138.669 12.4197L138.122 12.4084H25.4034C22.8969 12.4084 20.3976 12.3833 17.898 12.3895L15.3974 12.4084C10.0251 12.5036 5.5116 16.1662 4.93872 21.2451L4.8967 21.7405C4.56248 27.3539 4.81367 32.9502 4.8222 38.6519H149.255V27.7029ZM90.4785 16.8806C91.9283 17.0169 93.3222 17.5223 94.5206 18.3537C95.8901 19.3039 96.9436 20.6369 97.5464 22.1811C98.1489 23.725 98.2735 25.4114 97.9056 27.0259C97.5374 28.6408 96.6921 30.1122 95.4776 31.2504C94.2633 32.3883 92.7346 33.1437 91.0859 33.4194C89.4369 33.6951 87.7414 33.4776 86.2167 32.7973C84.6921 32.117 83.4056 31.0032 82.5222 29.5977C81.639 28.1922 81.1986 26.5584 81.2557 24.9042L81.2805 24.4938C81.4572 22.4561 82.3829 20.5474 83.89 19.1347C85.4979 17.6277 87.6399 16.8051 89.8538 16.8447L90.4785 16.8806ZM119.864 16.8749C121.315 17.0001 122.713 17.4957 123.918 18.3178C125.294 19.2572 126.357 20.5815 126.972 22.1206C127.587 23.6598 127.727 25.346 127.371 26.9635C127.016 28.5808 126.183 30.0575 124.978 31.2051C123.773 32.3526 122.25 33.1192 120.603 33.4081C118.957 33.6969 117.26 33.4953 115.73 32.8275C114.2 32.1598 112.906 31.0561 112.011 29.6582C111.116 28.26 110.661 26.6289 110.704 24.9742L110.725 24.5638C110.884 22.5234 111.794 20.6056 113.291 19.1801C114.887 17.6595 117.024 16.8209 119.239 16.8447L119.864 16.8749ZM34.9853 16.8447C36.6496 16.8751 38.2691 17.3918 39.6368 18.331C41.0044 19.2703 42.0606 20.59 42.6722 22.1225C43.2837 23.6547 43.423 25.332 43.0733 26.9427C42.7235 28.5534 41.9 30.0266 40.7065 31.1748C39.5127 32.3231 38.0013 33.0969 36.3645 33.3967C34.7279 33.6965 33.0384 33.5089 31.5086 32.8597C29.9788 32.2104 28.6774 31.1274 27.7683 29.7471C26.8592 28.3667 26.3834 26.7505 26.4005 25.1027C26.4083 24.0003 26.6359 22.9096 27.073 21.8956C27.5102 20.8812 28.1479 19.9637 28.9469 19.1952C29.746 18.4266 30.6914 17.823 31.7283 17.4196C32.7647 17.0163 33.8719 16.8207 34.9853 16.8447ZM62.3785 16.8409C64.0444 16.8617 65.6674 17.3698 67.0414 18.3027C68.4156 19.2357 69.4802 20.5515 70.0998 22.0828C70.7192 23.614 70.8655 25.2928 70.5219 26.9068C70.1783 28.5209 69.3596 29.9985 68.1685 31.1521C66.9774 32.3056 65.4678 33.0844 63.8303 33.3892C62.1926 33.6939 60.4997 33.5102 58.9667 32.8635C57.4339 32.2167 56.129 31.1351 55.2169 29.7546C54.3048 28.3744 53.826 26.7577 53.8415 25.1084C53.8443 24.0082 54.0684 22.9187 54.5005 21.905C54.9328 20.8912 55.5646 19.9723 56.3592 19.2028C57.1538 18.4333 58.0958 17.829 59.1291 17.4233C60.1624 17.0178 61.2672 16.8195 62.3785 16.8409ZM89.4584 17.4271C87.5362 17.4857 85.696 18.2415 84.293 19.5564C82.7972 20.9587 81.9176 22.8869 81.8422 24.925C81.7893 26.464 82.199 27.9839 83.0208 29.2913C83.8427 30.599 85.0391 31.6348 86.4574 32.2678C87.8756 32.9006 89.4526 33.1027 90.9866 32.8465C92.5207 32.59 93.9447 31.8876 95.0746 30.8287C96.2043 29.7699 96.9898 28.4015 97.3325 26.8992C97.6751 25.3967 97.5591 23.8259 96.9982 22.3891C96.4373 20.9526 95.4565 19.7141 94.1825 18.8302C92.9083 17.9464 91.3979 17.4568 89.8423 17.4252L89.4584 17.4271ZM119.232 17.4252C117.171 17.4035 115.183 18.1835 113.698 19.598C112.305 20.9246 111.457 22.7102 111.31 24.6092L111.291 24.9893C111.251 26.5287 111.673 28.0454 112.506 29.3462C113.339 30.6471 114.544 31.6748 115.967 32.2962C117.39 32.9174 118.969 33.1055 120.5 32.837C122.032 32.5682 123.45 31.853 124.571 30.7852C125.692 29.7175 126.468 28.3435 126.798 26.8387C127.129 25.334 126.998 23.7662 126.426 22.3343C125.854 20.9021 124.864 19.6702 123.583 18.7962C122.302 17.9224 120.787 17.4449 119.232 17.4252ZM34.586 17.4271C33.6815 17.4519 32.7862 17.632 31.9422 17.9604C30.9781 18.3357 30.0988 18.8966 29.3557 19.6112C28.6124 20.3262 28.0203 21.1807 27.6136 22.1244C27.2068 23.0681 26.994 24.0824 26.987 25.1084C26.9712 26.6409 27.4138 28.1455 28.2592 29.4294C29.105 30.7137 30.3163 31.7223 31.7397 32.3264C33.1629 32.9303 34.7349 33.1045 36.2575 32.8257C37.7801 32.5467 39.1851 31.8268 40.2958 30.7588C41.4065 29.6904 42.1747 28.3205 42.5003 26.8217C42.8258 25.3229 42.6949 23.762 42.1258 22.3362C41.5569 20.9106 40.5746 19.6833 39.3025 18.8094C38.0301 17.9356 36.524 17.4536 34.9757 17.4252L34.586 17.4271ZM61.9811 17.4233C61.0787 17.4503 60.1861 17.6322 59.345 17.9623C58.384 18.3395 57.5089 18.9032 56.7699 19.6188C56.0309 20.3346 55.4431 21.189 55.0411 22.132C54.6393 23.0747 54.4304 24.0871 54.4279 25.1103C54.4134 26.645 54.8591 28.1525 55.7078 29.437C56.5564 30.7211 57.77 31.7285 59.196 32.3302C60.6223 32.9319 62.1977 33.1016 63.7214 32.8181C65.2451 32.5346 66.6495 31.8094 67.7578 30.7361C68.8658 29.6629 69.6292 28.2893 69.9488 26.7876C70.2685 25.2858 70.1299 23.7231 69.5534 22.2984C68.977 20.874 67.9873 19.6509 66.709 18.783C65.4306 17.915 63.9209 17.4407 62.3708 17.4214L61.9811 17.4233ZM39.2089 25.1803C39.2088 24.6235 39.0956 24.0725 38.8765 23.5597C38.6573 23.0468 38.3365 22.5822 37.9328 22.1944C37.5292 21.8067 37.0511 21.5032 36.5269 21.3018C36.0024 21.1003 35.4425 21.0052 34.8802 21.0219H34.863C34.3009 21.0052 33.7407 21.1005 33.2164 21.3018C32.6919 21.5033 32.2122 21.8065 31.8085 22.1944C31.4048 22.5822 31.084 23.0468 30.8648 23.5597C30.6458 24.0724 30.5325 24.6236 30.5324 25.1803C30.5324 25.7369 30.6459 26.2882 30.8648 26.8009C31.0839 27.3136 31.405 27.7784 31.8085 28.1662C32.2122 28.554 32.6919 28.8573 33.2164 29.0587C33.7408 29.2601 34.3008 29.3572 34.863 29.3405L34.8802 29.3386C35.4425 29.3553 36.0024 29.2602 36.5269 29.0587C37.0512 28.8573 37.5292 28.5539 37.9328 28.1662C38.3366 27.7783 38.6573 27.3138 38.8765 26.8009C39.0956 26.2881 39.2089 25.7371 39.2089 25.1803ZM60.3956 20.8139C61.2666 20.4477 62.228 20.345 63.1579 20.5189C64.088 20.6931 64.9461 21.1374 65.6221 21.7935C66.2978 22.4494 66.7631 23.2895 66.9574 24.2064C67.1514 25.1233 67.0655 26.0772 66.7129 26.9465C66.3601 27.8157 65.7552 28.5617 64.9745 29.0909C64.1977 29.6174 63.2814 29.9052 62.3403 29.9192L62.3422 29.9211L62.3326 29.9192L62.3212 29.9211L62.3193 29.9192C61.6925 29.9338 61.0694 29.8257 60.4854 29.5996C59.8944 29.3707 59.3556 29.0271 58.9018 28.5879C58.448 28.1486 58.0879 27.6227 57.8435 27.0429C57.5992 26.4633 57.4749 25.8405 57.4786 25.2124C57.472 24.277 57.7454 23.3605 58.2638 22.5782C58.7829 21.7948 59.5244 21.1802 60.3956 20.8139ZM89.722 20.4414C90.3578 20.4275 90.9907 20.538 91.5826 20.7685C92.1788 21.0009 92.7218 21.3496 93.1796 21.7935C93.6374 22.2374 94.0004 22.7682 94.2474 23.3536C94.4944 23.9391 94.6209 24.5684 94.618 25.203C94.6151 25.8374 94.4825 26.4654 94.2302 27.0486C93.9779 27.6316 93.6108 28.1595 93.149 28.5992C92.6873 29.0389 92.1407 29.382 91.5425 29.609C90.9489 29.8342 90.3152 29.9386 89.68 29.9192L89.6819 29.9211L89.6742 29.9192L89.6647 29.9211C89.0295 29.9347 88.3973 29.8224 87.806 29.592C87.2098 29.3596 86.6668 29.011 86.209 28.5671C85.7511 28.1231 85.3882 27.5925 85.1412 27.007C84.9559 26.5677 84.8392 26.1043 84.7935 25.6322L84.7706 25.1595C84.7735 24.525 84.9061 23.8971 85.1584 23.3138C85.4107 22.7307 85.7778 22.2031 86.2396 21.7632C86.7014 21.3234 87.2477 20.9786 87.8461 20.7515C88.4392 20.5266 89.072 20.4222 89.7067 20.4414H89.722ZM119.144 20.4414C119.779 20.4218 120.413 20.5264 121.006 20.7515C121.605 20.9785 122.151 21.3234 122.613 21.7632C123.075 22.2031 123.444 22.7305 123.696 23.3138C123.948 23.897 124.079 24.5251 124.082 25.1595C124.085 25.7936 123.96 26.4219 123.713 27.007C123.466 27.5923 123.103 28.1232 122.645 28.5671C122.187 29.0111 121.643 29.3596 121.047 29.592C120.461 29.8199 119.837 29.9301 119.209 29.9192L119.211 29.9211L119.199 29.9192L119.18 29.9211H119.173C118.545 29.9385 117.92 29.8341 117.333 29.6128C116.734 29.387 116.187 29.0438 115.725 28.6049C115.262 28.1662 114.893 27.6404 114.639 27.0581C114.386 26.4757 114.252 25.8484 114.248 25.2143C114.244 24.5802 114.367 23.9507 114.613 23.3649C114.858 22.7792 115.22 22.2478 115.677 21.8029C116.133 21.358 116.676 21.0081 117.272 20.7742C117.862 20.5424 118.494 20.4295 119.129 20.4414H119.144ZM89.2845 21.0276C88.8649 21.055 88.4505 21.1447 88.0562 21.2942C87.5312 21.4935 87.0517 21.7952 86.6465 22.1811C86.2411 22.5672 85.9185 23.0308 85.6971 23.5427C85.4758 24.0544 85.3596 24.6048 85.357 25.1614C85.3545 25.7181 85.465 26.2701 85.6818 26.7839C85.8985 27.2976 86.218 27.7634 86.6197 28.153C87.0215 28.5424 87.4986 28.8473 88.0219 29.0512C88.5452 29.2551 89.1044 29.3526 89.6666 29.3386H89.6838C90.2459 29.3577 90.8071 29.2655 91.3324 29.0663C91.8573 28.8671 92.337 28.5653 92.7421 28.1794C93.1472 27.7936 93.4702 27.3313 93.6915 26.8198C93.913 26.3079 94.029 25.756 94.0316 25.1992C94.034 24.643 93.9232 24.0919 93.7068 23.5786C93.4901 23.0649 93.1705 22.5991 92.7689 22.2095C92.3671 21.8199 91.8901 21.5133 91.3667 21.3094C90.8434 21.1055 90.2842 21.0079 89.722 21.0219H89.7048L89.2845 21.0276ZM63.049 21.09C62.233 20.9374 61.3892 21.0277 60.6248 21.3491C59.8608 21.6704 59.2102 22.2089 58.7547 22.8959C58.2991 23.5835 58.0584 24.3902 58.0651 25.2124V25.2162C58.0618 25.7664 58.1701 26.312 58.3841 26.8198C58.5982 27.3277 58.915 27.7871 59.3125 28.1719C59.71 28.5566 60.1817 28.8583 60.6993 29.0587C61.2145 29.2582 61.7644 29.3531 62.3173 29.3386L62.6287 29.3254C63.3489 29.2641 64.0427 29.0186 64.6421 28.6125C65.3275 28.1479 65.8589 27.4921 66.1684 26.729C66.4778 25.9662 66.5527 25.13 66.3824 24.3255C66.2119 23.5208 65.8045 22.7832 65.2114 22.2076C64.6182 21.6319 63.8652 21.2428 63.049 21.09ZM118.712 21.0333C118.293 21.0655 117.88 21.1592 117.488 21.3132C116.965 21.5183 116.49 21.8267 116.089 22.2171C115.689 22.6075 115.371 23.074 115.155 23.588C114.94 24.102 114.831 24.6542 114.834 25.2105C114.838 25.7668 114.956 26.3164 115.178 26.8274C115.401 27.3383 115.724 27.8001 116.129 28.1851C116.535 28.5702 117.016 28.8719 117.541 29.0701C118.063 29.267 118.62 29.3571 119.178 29.3386H119.188C119.75 29.3525 120.309 29.255 120.833 29.0512C121.356 28.8473 121.833 28.5424 122.235 28.153C122.636 27.7635 122.954 27.2974 123.171 26.7839C123.387 26.2701 123.498 25.7181 123.495 25.1614C123.493 24.6049 123.379 24.0543 123.157 23.5427C122.936 23.0308 122.611 22.5672 122.206 22.1811C121.801 21.7953 121.321 21.4934 120.796 21.2942C120.271 21.0952 119.711 21.003 119.15 21.0219H119.132L118.712 21.0333ZM64.7434 3.84774L65.3145 3.87043C66.6078 3.96498 67.6375 4.35883 68.3461 5.06366C69.1598 5.87312 69.5005 7.04259 69.393 8.48262L69.3739 8.75114H25.8141L25.8275 8.44858C25.8981 6.90305 26.2943 5.73547 27.1264 4.95966C27.9576 4.18502 29.1692 3.85195 30.7502 3.84774H48.657C54.0147 3.84774 59.3822 3.81563 64.7434 3.84774ZM116.391 3.82883C118.794 3.82481 121.198 3.8292 123.602 3.85531L124.141 3.88367C125.362 3.98966 126.347 4.39634 127.037 5.10148C127.827 5.90881 128.186 7.06326 128.116 8.47505L128.103 8.75114H108.061V4.06899L108.276 4.01037C108.567 3.93226 108.865 3.8813 109.165 3.8572L109.188 3.85531L116.391 3.82883ZM97.2446 3.8364H104.771V4.12761L104.763 8.45425L104.762 8.74358H84.7878L84.7438 8.5072C84.501 7.24533 84.7683 6.10726 85.4812 5.26978C86.1928 4.43413 87.3174 3.93265 88.7172 3.87989L90.8529 3.82694C92.9879 3.79918 95.1227 3.8364 97.2446 3.8364ZM109.197 4.43585C109.012 4.45138 108.829 4.4838 108.647 4.52283V8.1706H127.536C127.542 7.00618 127.215 6.11729 126.615 5.50427C125.967 4.84253 124.962 4.45905 123.595 4.43774C118.796 4.38563 113.996 4.41577 109.197 4.43585ZM64.7396 4.42828C59.3805 4.39618 54.0196 4.42828 48.657 4.42828H30.7521C29.24 4.43226 28.2055 4.75324 27.5295 5.38325C26.9023 5.96797 26.5393 6.86452 26.4368 8.1706H68.818C68.8572 6.97699 68.5424 6.08362 67.9297 5.47401C67.3504 4.89781 66.4709 4.53664 65.2725 4.44908L64.7396 4.42828ZM90.8624 4.40748L88.7401 4.46043C87.4684 4.50823 86.5138 4.95885 85.9301 5.64421C85.3894 6.27936 85.1445 7.14676 85.2845 8.16304H104.175L104.185 4.41694H97.2446C95.109 4.41694 92.985 4.37991 90.8624 4.40748ZM28.7483 136.748C28.815 137.83 29.115 138.587 29.6308 139.093C30.1474 139.6 30.9246 139.898 32.0358 139.971L32.5344 139.988L36.9968 139.997C38.483 139.994 39.9683 139.988 41.4515 139.988C43.8293 139.988 46.1929 140.023 48.5596 139.963L48.8939 139.944C50.5294 139.794 51.6566 138.855 51.7631 137.533L51.8109 136.786C51.8911 135.128 51.8137 133.447 51.8052 131.707L28.8037 131.716C28.7919 131.737 28.7854 131.755 28.7788 131.767C28.7563 131.808 28.7622 131.809 28.7655 131.79C28.7653 132.533 28.7568 133.276 28.7483 134.018C28.7396 134.767 28.7329 135.516 28.7349 136.264L28.7483 136.748ZM112.194 85.8705C112.194 90.7703 112.207 95.6691 112.191 100.583C112.187 101.188 112.261 101.675 112.471 102.016C112.667 102.333 113.008 102.567 113.656 102.615L113.847 102.621C114.276 102.613 114.593 102.458 114.815 102.188C115.08 101.866 115.245 101.34 115.245 100.59V71.3589L115.237 71.0809C115.203 70.4611 115.055 70.0181 114.832 69.725C114.588 69.4034 114.223 69.225 113.707 69.2144C113.196 69.2042 112.839 69.3755 112.599 69.6929C112.348 70.0259 112.194 70.5608 112.194 71.3324V85.8705ZM1.11437 64.6268C1.11447 65.2097 1.25326 65.6457 1.50025 65.9316C1.74008 66.2091 2.1165 66.3845 2.68461 66.3855C3.20712 66.3727 3.56317 66.1942 3.79447 65.9184C4.03196 65.6352 4.16889 65.2145 4.16889 64.6703C4.16889 64.0158 4.19473 63.3913 4.17653 62.7718L4.14023 62.1515C4.09997 61.6895 3.9473 61.3499 3.71424 61.1247C3.4827 60.9014 3.14023 60.7591 2.65787 60.7465C2.17802 60.734 1.83917 60.8626 1.60531 61.0774C1.36918 61.2943 1.20475 61.6295 1.13921 62.0929C1.10644 62.5726 1.10785 63.0541 1.14112 63.5338L1.16213 63.8459H1.11437V64.6268ZM24.4731 108.116C24.4732 111.093 25.3194 113.377 26.8781 114.918C28.4372 116.46 30.7494 117.297 33.7608 117.297H120.246C123.26 117.297 125.577 116.461 127.14 114.92C128.704 113.38 129.555 111.098 129.555 108.128V61.119C129.553 58.1401 128.706 55.8524 127.148 54.3095C125.589 52.7666 123.277 51.9287 120.261 51.9287H33.7761C30.7589 51.9288 28.4435 52.7653 26.8819 54.3057C25.3204 55.8462 24.4731 58.1294 24.4731 61.102V108.116ZM126.483 108.377C126.483 110.295 125.998 111.787 124.978 112.797C124.085 113.68 122.82 114.158 121.22 114.264L120.514 114.287L33.8544 114.277C31.6768 114.277 30.0679 113.839 29.0119 112.787C27.9564 111.736 27.5142 110.136 27.5142 107.967V61.1096C27.5143 59.0494 27.986 57.4867 29.0329 56.4425C30.0804 55.3979 31.6489 54.9279 33.7149 54.9278L120.514 54.9675L121.22 54.9902C122.82 55.0984 124.085 55.5822 124.978 56.4709C125.998 57.4867 126.483 58.9842 126.483 60.9053V108.377ZM149.842 39.2324H4.23766V38.9412C4.23763 33.1762 3.96909 27.4365 4.31025 21.7065L4.35609 21.177C4.96609 15.7736 9.76214 11.9273 15.3879 11.8278L17.8941 11.8089C20.3994 11.8027 22.905 11.8278 25.4034 11.8278H138.122L138.695 11.8392C144.564 12.0822 149.076 15.9986 149.743 21.6498L149.815 22.4118C149.946 24.1887 149.842 25.9696 149.842 27.7029V39.2324ZM39.7972 25.1803C39.7972 25.815 39.6669 26.4433 39.4171 27.0278C39.1673 27.6123 38.8017 28.1421 38.3416 28.5841C37.8816 29.0258 37.3364 29.3719 36.7389 29.6015C36.1462 29.8291 35.5137 29.936 34.8783 29.9192L34.8802 29.9211L34.8707 29.9192L34.863 29.9211C34.2279 29.9377 33.5948 29.829 33.0024 29.6015C32.405 29.3719 31.8596 29.0259 31.3997 28.5841C30.9396 28.1421 30.574 27.6123 30.3242 27.0278C30.0745 26.4434 29.946 25.8148 29.946 25.1803C29.946 24.5457 30.0745 23.9172 30.3242 23.3328C30.5739 22.7486 30.94 22.2202 31.3997 21.7783C31.8595 21.3366 32.4051 20.9906 33.0024 20.761C33.5948 20.5334 34.2279 20.4247 34.863 20.4414H34.8783C35.5138 20.4246 36.1461 20.5332 36.7389 20.761C37.3366 20.9906 37.8815 21.3363 38.3416 21.7783C38.8015 22.2202 39.1673 22.7485 39.4171 23.3328C39.6668 23.9172 39.7972 24.5457 39.7972 25.1803ZM153.5 116.087C153.5 120.638 151.938 124.484 149.206 127.202C146.474 129.921 142.591 131.489 137.991 131.523L137.992 131.525C135.214 131.549 132.433 131.527 129.538 131.525V136.652C129.517 138.741 128.816 140.576 127.576 141.905C126.411 143.153 124.782 143.94 122.833 144.082L122.439 144.101C117.352 144.243 112.262 144.261 107.17 144.153L104.989 144.101C102.888 144.042 101.139 143.247 99.9094 141.935C98.6822 140.626 97.9868 138.82 97.9552 136.763L97.9457 134.116C97.9489 133.315 97.9521 132.501 97.9533 131.665H56.1071V136.262C56.0945 138.69 55.3739 140.663 54.0077 142.037C52.7261 143.326 50.9069 144.058 48.657 144.165L48.2024 144.176C44.254 144.214 40.3057 144.225 36.3588 144.206L32.4121 144.176C29.9572 144.151 27.9744 143.406 26.6049 142.028C25.3214 140.737 24.6047 138.92 24.5151 136.709L24.5056 136.26V131.544C21.7835 131.552 19.0661 131.656 16.3946 131.504C14.3662 131.388 12.1927 131.195 10.234 130.531C7.42175 129.571 4.9792 127.768 3.24814 125.374C1.51717 122.979 0.581654 120.11 0.571858 117.165L0.537473 105.633C0.531264 101.79 0.529325 97.9471 0.529832 94.104L0.543204 71.0449C0.543204 70.2698 0.721982 69.6206 1.09909 69.1709C1.48552 68.7103 2.04698 68.4985 2.71135 68.5393L2.99598 68.5677C3.63457 68.6633 4.08583 68.9441 4.37328 69.3809C4.68786 69.8589 4.77444 70.4801 4.77444 71.1206V116.477C4.77454 121.729 8.04694 125.891 13.0306 127.028C14.0981 127.238 15.1863 127.332 16.2742 127.305H16.28L22.4215 127.267C24.4693 127.248 26.5193 127.231 28.5706 127.233L38.7733 127.244C42.1748 127.252 45.5764 127.262 48.978 127.272C55.7812 127.292 62.5859 127.312 69.3891 127.312C88.04 127.312 106.704 127.286 125.379 127.233L128.493 127.244C129.53 127.252 130.567 127.262 131.603 127.272C133.676 127.292 135.749 127.312 137.819 127.308L138.476 127.295C141.72 127.167 144.342 126.083 146.184 124.252C148.149 122.3 149.255 119.47 149.255 115.958V43.1374L4.7668 43.1487V55.5746C4.7668 55.6739 4.77496 55.7852 4.78399 55.9093C4.79273 56.0293 4.80255 56.1626 4.805 56.2913C4.80897 56.4992 4.79666 56.7696 4.66555 56.9871L4.60252 57.076C4.36871 57.3578 4.06939 57.7063 3.74863 57.9837C3.44058 58.25 3.05218 58.5046 2.64258 58.5018C2.23408 58.4989 1.85016 58.2413 1.54418 57.9724C1.22585 57.6925 0.928275 57.3435 0.696025 57.0571L0.697935 57.0552C0.509604 56.8242 0.494629 56.5087 0.501178 56.2723C0.504731 56.1444 0.516572 56.0116 0.526011 55.8922C0.535764 55.769 0.543182 55.6588 0.543204 55.5594V23.7091C0.543325 19.1475 2.1334 15.2841 4.89861 12.5578C7.66408 9.83144 11.5856 8.2621 16.2112 8.25191H22.0432C22.1766 7.43049 22.2694 6.63088 22.473 5.88058L22.6469 5.33786C23.0993 4.09577 23.8712 2.9877 24.8895 2.12503C26.0536 1.13914 27.4884 0.518161 29.01 0.3418L29.9345 0.262378C30.2429 0.244661 30.552 0.236286 30.861 0.235903H64.5504C66.6975 0.235903 68.5307 0.749468 69.9546 1.7298C71.2019 2.58885 72.1219 3.79613 72.6652 5.29815L72.8754 5.96L72.8792 5.97324C73.0408 6.69397 73.164 7.42287 73.2555 8.15547H80.8087C80.875 7.47967 80.969 6.80678 81.0972 6.13965L81.101 6.12452L81.2614 5.55911C81.6877 4.25737 82.4624 3.09007 83.506 2.18176C84.6985 1.14387 86.1854 0.496328 87.764 0.326672C88.3779 0.257932 88.9953 0.221965 89.6131 0.222666L106.38 0.23023C111.967 0.232739 117.555 0.232699 123.144 0.222666L123.805 0.237794C125.326 0.306461 126.712 0.621173 127.908 1.26462C129.28 2.00224 130.383 3.16182 131.159 4.83107L131.337 5.25844C131.499 5.69121 131.615 6.1411 131.717 6.59917C131.841 7.15195 131.945 7.69705 132.082 8.27461H137.95L138.799 8.29541C143.002 8.49061 146.583 10.0391 149.16 12.5937C151.908 15.3186 153.498 19.1717 153.5 23.7015V116.087Z" fill="#E6811B"/>
</svg>
