<svg width="75" height="75" viewBox="0 0 75 75" fill="none" xmlns="http://www.w3.org/2000/svg">
<rect x="11" y="11.2227" width="52.1257" height="52.6227" rx="26.0629" stroke="#E6811B" stroke-width="2"/>
<path d="M39.0519 22.0439C38.5235 21.5179 37.8084 21.2227 37.0629 21.2227C36.3174 21.2227 35.6022 21.5179 35.0739 22.0439L23.8239 33.2939C23.5627 33.5551 23.3555 33.8652 23.2141 34.2065C23.0728 34.5477 23 34.9135 23 35.2829C23 36.0289 23.2964 36.7444 23.8239 37.2719C24.3514 37.7994 25.0669 38.0958 25.8129 38.0958C26.5589 38.0958 27.2744 37.7994 27.8019 37.2719L34.2504 30.8234V51.0329C34.2504 51.7788 34.5467 52.4942 35.0741 53.0216C35.6016 53.5491 36.3169 53.8454 37.0629 53.8454C37.8088 53.8454 38.5242 53.5491 39.0516 53.0216C39.5791 52.4942 39.8754 51.7788 39.8754 51.0329V30.8234L46.3239 37.2719C46.5851 37.5331 46.8952 37.7403 47.2364 37.8816C47.5777 38.023 47.9435 38.0958 48.3129 38.0958C48.6823 38.0958 49.048 38.023 49.3893 37.8816C49.7306 37.7403 50.0407 37.5331 50.3019 37.2719C50.5631 37.0107 50.7703 36.7006 50.9116 36.3593C51.053 36.0181 51.1257 35.6523 51.1257 35.2829C51.1257 34.9135 51.053 34.5477 50.9116 34.2065C50.7703 33.8652 50.5631 33.5551 50.3019 33.2939L39.0519 22.0439Z" fill="#E6811B"/>
</svg>
