<svg width="27" height="27" viewBox="0 0 27 27" fill="none" xmlns="http://www.w3.org/2000/svg">
<path id="Vector" d="M13.802 8.25536C11.1262 8.25536 8.94606 10.4355 8.94606 13.1113C8.94606 15.7872 11.1262 17.9673 13.802 17.9673C16.4779 17.9673 18.658 15.7872 18.658 13.1113C18.658 10.4355 16.4779 8.25536 13.802 8.25536ZM26.2657 12.3273L21.4755 9.93472L23.17 4.85619C23.3976 4.16826 22.7451 3.51574 22.0622 3.74842L16.9837 5.44295L14.5861 0.647683C14.2623 0.000220976 13.3417 0.000220976 13.018 0.647683L10.6254 5.43789L5.54183 3.74336C4.8539 3.51574 4.20138 4.16826 4.43406 4.85113L6.12859 9.92966L1.33838 12.3273C0.690918 12.651 0.690918 13.5716 1.33838 13.8954L6.12859 16.2879L4.43406 21.3715C4.20643 22.0595 4.85895 22.712 5.54183 22.4793L10.6204 20.7848L13.0129 25.575C13.3367 26.2224 14.2573 26.2224 14.581 25.575L16.9736 20.7848L22.0521 22.4793C22.74 22.7069 23.3926 22.0544 23.1599 21.3715L21.4653 16.293L26.2556 13.9004C26.9131 13.5716 26.9131 12.651 26.2657 12.3273ZM18.3798 17.6891C15.8557 20.2132 11.7484 20.2132 9.22427 17.6891C6.70018 15.165 6.70018 11.0577 9.22427 8.53357C11.7484 6.00948 15.8557 6.00948 18.3798 8.53357C20.9039 11.0577 20.9039 15.165 18.3798 17.6891Z" fill="#FFE347"/>
</svg>
